<?xml version="1.0" encoding="utf-8"?>
<!-- Generator: Adobe Illustrator 21.0.0, SVG Export Plug-In . SVG Version: 6.00 Build 0)  -->
<svg version="1.1" id="Layer_1" xmlns="http://www.w3.org/2000/svg" xmlns:xlink="http://www.w3.org/1999/xlink" x="0px" y="0px"
	 viewBox="0 0 256 256" style="enable-background:new 0 0 256 256;" xml:space="preserve">
<style type="text/css">
	.st0{fill:#F43F1D;}
	.st1{fill:#1F272B;}
</style>
<rect class="st0" width="256" height="256"/>
<g>
	<g>
		<path class="st1" d="M108.9,40.1c3-0.6,6-1.1,9.1-1.5C114.9,38.9,111.9,39.4,108.9,40.1z M128,38c1.4,0,2.8,0,4.2,0.1
			C130.8,38,129.4,38,128,38z M143.8,39.4c-1.2-0.2-2.5-0.4-3.7-0.6c1.4,0.2,2.7,0.4,4,0.6C144,39.4,143.9,39.4,143.8,39.4z
			 M118.3,38.5c1.4-0.1,2.8-0.3,4.2-0.3C121.1,38.3,119.7,38.4,118.3,38.5z M216.3,110.5L216.3,110.5L216.3,110.5L216.3,110.5z
			 M162,154.9L100.1,93l0,0l0,0l26.1-26.1l61.9,61.9l7.1-7.1l-61.9-61.9l0,0l-0.4-0.4l0.4,0.4l10.2-10.2c-4.1-0.8-8.4-1.3-12.7-1.4
			l-4.6,4.6l-4.4-4.4c-4.2,0.3-8.3,1-12.2,1.9l9.6,9.6l7.1-7.1l0,0l-7.1,7.1l7.1,7.1h0l-7.1-7.1L93,85.9L75.1,68
			c-2.5,2.2-4.9,4.6-7.1,7.1L85.9,93l7.1-7.1l0,0L85.9,93l0,0l-32.5,32.5l-0.7,0.7l0.1,0.1c-1.3,1.9-1.1,4.6,0.6,6.3
			c1.7,1.7,4.4,1.9,6.3,0.6l0.1,0.1l0.7-0.7c0.5-0.5,0.9-1.2,1.2-1.9c-0.2,0.7-0.6,1.3-1.2,1.9L93,100l0,0l0,0l28.9,28.9l0,0
			l1.7,1.7l-1.7-1.7l-53,53c2.2,2.5,4.7,4.8,7.2,6.9l19.1-19.1l-0.9-0.9l0.9,0.9l0,0l38.1,38.1c4.2-0.3,8.3-0.9,12.4-1.8l-43.3-43.3
			l0,0l-3.3-3.3l0,0l3.3,3.3L129,136l51.9,51.9c2.5-2.2,4.9-4.6,7.1-7.1L169.1,162l26.1-26.1l-7.1-7.1L162,154.9z M57,124
			c1.3,0,2.6,0.5,3.5,1.5C59.6,124.4,58.3,124,57,124z M124.1,126.8l1.4-1.4l0,0L124.1,126.8z M169.1,162L169.1,162l-7.1-7.1l-4,4
			l0,0l4-4L169.1,162L169.1,162z M216.3,110.5c-0.3-1.5-0.6-3.1-1-4.6C215.6,107.4,216,109,216.3,110.5z M128,28
			C72.8,28,28,72.8,28,128c0,55.2,44.8,100,100,100s100-44.8,100-100S183.2,28,128,28z M128,218c-49.7,0-90-40.3-90-90
			c0-49.7,40.3-90,90-90s90,40.3,90,90C218,177.7,177.7,218,128,218z M206.1,110.8l-10.9,10.9l0,0l-7.1,7.1l7.1,7.1l0,0l10.6,10.6
			c0.9-4,1.6-8.1,1.9-12.2l-5.5-5.5l0,0l0,0l5.6-5.6C207.6,118.9,207,114.8,206.1,110.8z M92.3,126.6c-4.3,0-7.8,3.5-7.8,7.8
			l7.8,12.1l7.8-12.1C100.2,130.1,96.7,126.6,92.3,126.6z M92.3,137.4c-2,0-3.6-1.6-3.6-3.6s1.6-3.6,3.6-3.6c2,0,3.6,1.6,3.6,3.6
			S94.3,137.4,92.3,137.4z"/>
	</g>
</g>
</svg>
