<?xml version="1.0" encoding="UTF-8"?>
<svg width="200px" height="200px" viewBox="0 0 200 200" version="1.1" xmlns="http://www.w3.org/2000/svg" xmlns:xlink="http://www.w3.org/1999/xlink">
    <!-- Generator: Sketch 43.2 (39069) - http://www.bohemiancoding.com/sketch -->
    <title>Untitled</title>
    <desc>Created with Sketch.</desc>
    <defs></defs>
    <g id="Page-1" stroke="none" stroke-width="1" fill="none" fill-rule="evenodd">
        <g id="icon" fill-rule="nonzero" fill="#F43F1D">
            <path d="M80.9,12.1 C83.9,11.5 86.9,11 90,10.6 C86.9,10.9 83.9,11.4 80.9,12.1 Z M100,10 C101.4,10 102.8,10 104.2,10.1 C102.8,10 101.4,10 100,10 Z M115.8,11.4 C114.6,11.2 113.3,11 112.1,10.8 C113.5,11 114.8,11.2 116.1,11.4 L115.8,11.4 Z M90.3,10.5 C91.7,10.4 93.1,10.2 94.5,10.2 C93.1,10.3 91.7,10.4 90.3,10.5 Z M134,126.9 L72.1,65 L72.1,65 L72.1,65 L98.2,38.9 L160.1,100.8 L167.2,93.7 L105.3,31.8 L105.3,31.8 L104.9,31.4 L105.3,31.8 L115.5,21.6 C111.4,20.8 107.1,20.3 102.8,20.2 L98.2,24.8 L93.8,20.4 C89.6,20.7 85.5,21.4 81.6,22.3 L91.2,31.9 L98.3,24.8 L98.3,24.8 L91.2,31.9 L98.3,39 L98.3,39 L91.2,31.9 L65,57.9 L47.1,40 C44.6,42.2 42.2,44.6 40,47.1 L57.9,65 L65,57.9 L65,57.9 L57.9,65 L57.9,65 L25.4,97.5 L24.7,98.2 L24.8,98.3 C23.5,100.2 23.7,102.9 25.4,104.6 C27.1,106.3 29.8,106.5 31.7,105.2 L31.8,105.3 L32.5,104.6 C33,104.1 33.4,103.4 33.7,102.7 C33.5,103.4 33.1,104 32.5,104.6 L65,72 L65,72 L65,72 L93.9,100.9 L93.9,100.9 L95.6,102.6 L93.9,100.9 L40.9,153.9 C43.1,156.4 45.6,158.7 48.1,160.8 L67.2,141.7 L66.3,140.8 L67.2,141.7 L67.2,141.7 L105.3,179.8 C109.5,179.5 113.6,178.9 117.7,178 L74.4,134.7 L74.4,134.7 L71.1,131.4 L71.1,131.4 L74.4,134.7 L101,108 L152.9,159.9 C155.4,157.7 157.8,155.3 160,152.8 L141.1,134 L167.2,107.9 L160.1,100.8 L134,126.9 Z M29,96 C30.3,96 31.6,96.5 32.5,97.5 C31.6,96.4 30.3,96 29,96 Z M96.1,98.8 L97.5,97.4 L97.5,97.4 L96.1,98.8 Z M141.1,134 L141.1,134 L134,126.9 L130,130.9 L130,130.9 L134,126.9 L141.1,134 L141.1,134 Z M188.3,82.5 C188,81 187.7,79.4 187.3,77.9 C187.6,79.4 188,81 188.3,82.5 Z M100,0 C44.8,0 0,44.8 0,100 C0,155.2 44.8,200 100,200 C155.2,200 200,155.2 200,100 C200,44.8 155.2,0 100,0 Z M100,190 C50.3,190 10,149.7 10,100 C10,50.3 50.3,10 100,10 C149.7,10 190,50.3 190,100 C190,149.7 149.7,190 100,190 Z M178.1,82.8 L167.2,93.7 L167.2,93.7 L160.1,100.8 L167.2,107.9 L167.2,107.9 L177.8,118.5 C178.7,114.5 179.4,110.4 179.7,106.3 L174.2,100.8 L174.2,100.8 L174.2,100.8 L179.8,95.2 C179.6,90.9 179,86.8 178.1,82.8 Z M64.3,98.6 C60,98.6 56.5,102.1 56.5,106.4 L64.3,118.5 L72.1,106.4 C72.2,102.1 68.7,98.6 64.3,98.6 Z M64.3,109.4 C62.3,109.4 60.7,107.8 60.7,105.8 C60.7,103.8 62.3,102.2 64.3,102.2 C66.3,102.2 67.9,103.8 67.9,105.8 C67.9,107.8 66.3,109.4 64.3,109.4 Z" id="Shape"></path>
        </g>
    </g>
</svg>