<?xml version="1.0" encoding="UTF-8"?>
<svg width="1169px" height="258px" viewBox="0 0 1169 258" version="1.1" xmlns="http://www.w3.org/2000/svg" xmlns:xlink="http://www.w3.org/1999/xlink">
    <!-- Generator: Sketch 51.2 (57519) - http://www.bohemiancoding.com/sketch -->
    <title>brandmark/scoutred-horizontal   </title>
    <desc>Created with Sketch.</desc>
    <defs></defs>
    <g id="brandmark/scoutred-horizontal" stroke="none" stroke-width="1" fill="none" fill-rule="evenodd">
        <g id="text" transform="translate(280.000000, 55.000000)" fill="#444444" fill-rule="nonzero">
            <path d="M53.9,148.1 C42,148.1 31.1,145.4 21.3,140 C11.6,134.6 4.9,127.5 1.2,118.8 C0.6,117.3 0.3,116.1 0.3,115.1 C0.3,113.3 1,111.7 2.3,110.3 C3.7,108.8 5.5,107.8 7.8,107.4 C8.2,107.3 8.8,107.2 9.6,107.2 C11.6,107.2 13.4,107.8 15.1,109 C16.9,110.1 18.3,111.6 19.2,113.6 C21.4,118.4 25.8,122.4 32.3,125.8 C38.8,129.2 46,130.8 53.9,130.8 C63.1,130.8 70.9,128.7 77.3,124.5 C83.7,120.2 86.9,114.4 86.9,107 C86.9,100 84.2,94 78.8,89.1 C73.4,84.1 65.2,81 54.1,79.9 C38.9,78.4 26.9,74 18.2,66.6 C9.5,59.1 5.1,49.8 5.1,38.6 C5.1,30.7 7.3,24 11.7,18.3 C16.2,12.5 22.4,8.2 30.1,5.2 C38,2.1 46.8,0.6 56.5,0.6 C67.1,0.6 76,2.8 83.2,7.1 C90.4,11.4 96.6,17.5 101.6,25.5 C103.1,27.8 103.8,30 103.8,32.1 C103.8,34.8 102.6,37 100.1,38.7 C98.7,39.6 97.2,40 95.3,40 C93.5,40 91.7,39.6 90.1,38.7 C88.5,37.7 87.3,36.4 86.4,34.8 C83.1,29.3 78.9,25.1 73.9,22.3 C69,19.4 62.7,17.9 55.1,17.9 C45.8,17.9 38.2,19.7 32.4,23.4 C26.6,27 23.7,32.2 23.7,39.1 C23.7,45.5 26.3,50.8 31.4,55.1 C36.5,59.4 45.8,62.2 59,63.6 C73.7,65.1 85.2,69.6 93.3,77.1 C101.4,84.5 105.5,94.2 105.5,106.4 C105.5,115.2 103.1,122.9 98.3,129.3 C93.5,135.6 87.1,140.3 79.1,143.5 C71.5,146.6 63,148.1 53.9,148.1 L53.9,148.1 Z" id="path17"></path>
            <path d="M178.8,147 C169.1,147 160.4,144.8 152.6,140.4 C144.8,136 138.8,129.9 134.4,122.2 C130.1,114.3 127.9,105.6 127.9,96 C127.9,86.2 130,77.4 134.2,69.6 C138.5,61.7 144.5,55.7 152.1,51.4 C159.7,47 168.3,44.8 177.9,44.8 C192.4,44.8 204.4,50.3 214,61.4 C215.2,62.8 215.8,64.3 215.8,66.2 C215.8,68.9 214.4,71.2 211.7,73 C210.5,73.9 209.1,74.3 207.5,74.3 C204.7,74.3 202.3,73.2 200.3,71 C197.2,67.7 193.8,65.3 190.2,63.8 C186.6,62.2 182.5,61.4 177.9,61.4 C168.4,61.4 160.8,64.6 154.9,71 C149,77.3 146.1,85.6 146.1,96.1 C146.1,102.7 147.5,108.7 150.2,114 C153,119.2 156.9,123.2 161.8,126.2 C166.8,129.1 172.6,130.6 178.9,130.6 C187.3,130.6 194,128.4 199.2,124.1 C201.5,122.4 203.8,121.5 206,121.5 C207.7,121.5 209.3,122.1 210.8,123.2 C213.1,125.2 214.3,127.4 214.3,129.8 C214.3,131.6 213.6,133.3 212.1,134.8 C203.1,142.9 192,147 178.8,147 L178.8,147 Z" id="path19"></path>
            <path d="M289.6,147 C279.8,147 271,144.8 263.2,140.5 C255.5,136.1 249.4,130 245.1,122.3 C240.8,114.6 238.6,105.8 238.6,95.9 C238.6,85.9 240.8,77.1 245.1,69.4 C249.4,61.7 255.4,55.6 263.2,51.3 C270.9,46.9 279.7,44.7 289.6,44.7 C299.3,44.7 308,46.9 315.6,51.3 C323.3,55.6 329.4,61.6 333.7,69.4 C338.1,77.1 340.3,86 340.3,95.9 C340.3,105.7 338.1,114.5 333.8,122.3 C329.5,130 323.5,136.1 315.7,140.5 C308.2,144.9 299.5,147 289.6,147 Z M289.6,130.5 C295.9,130.5 301.5,129 306.4,126.1 C311.4,123.2 315.3,119.1 318,113.9 C320.8,108.6 322.2,102.7 322.2,96 C322.2,89.4 320.8,83.4 318,78.1 C315.3,72.8 311.4,68.7 306.4,65.8 C301.5,62.9 295.9,61.4 289.6,61.4 C283.3,61.4 277.7,62.9 272.6,65.8 C267.7,68.7 263.8,72.9 261,78.1 C258.2,83.4 256.8,89.3 256.8,96 C256.8,102.6 258.2,108.6 261,113.9 C263.8,119.1 267.7,123.1 272.6,126.1 C277.7,129 283.4,130.5 289.6,130.5 L289.6,130.5 Z" id="path21"></path>
            <path d="M451.6,45.3 C454.4,45.3 456.7,46.2 458.4,47.9 C460.1,49.6 461,51.9 461,54.7 L461,136.9 C461,139.6 460.1,141.9 458.4,143.7 C456.7,145.4 454.4,146.3 451.6,146.3 C448.9,146.3 446.6,145.4 444.8,143.7 C443.1,141.9 442.2,139.6 442.2,136.9 L442.2,134.9 C438.3,138.8 433.6,141.9 428.2,144.1 C422.8,146.2 417,147.2 410.9,147.2 C402.4,147.2 394.8,145.4 388,141.7 C381.2,138 376,132.7 372.1,125.7 C368.3,118.6 366.4,110 366.4,100.1 L366.4,54.8 C366.4,52.1 367.3,49.9 369,48.2 C370.8,46.4 373.1,45.4 375.8,45.4 C378.5,45.4 380.7,46.3 382.4,48.2 C384.2,49.9 385.2,52.1 385.2,54.8 L385.2,100.1 C385.2,110.1 387.8,117.6 393.1,122.8 C398.5,127.8 405.6,130.4 414.5,130.4 C419.7,130.4 424.3,129.4 428.5,127.3 C432.8,125.2 436.1,122.4 438.5,118.8 C441,115.2 442.2,111.2 442.2,106.8 L442.2,54.8 C442.2,52 443.1,49.7 444.8,48 C446.6,46.2 448.9,45.3 451.6,45.3 L451.6,45.3 Z" id="path23"></path>
            <path d="M537.1,127.9 C539.3,127.9 541.2,128.8 542.6,130.5 C544.2,132.2 545,134.4 545,137.1 C545,139.8 544,142 541.9,143.7 C539.9,145.4 537.4,146.3 534.2,146.3 L530.9,146.3 C524.9,146.3 519.3,144.8 514.3,141.7 C509.4,138.5 505.5,134.2 502.7,128.8 C499.9,123.4 498.5,117.3 498.5,110.6 L498.5,65 L490,65 C487.4,65 485.3,64.3 483.7,62.8 C482.1,61.3 481.3,59.5 481.3,57.3 C481.3,54.8 482.1,52.9 483.7,51.4 C485.3,49.9 487.4,49.2 490,49.2 L498.5,49.2 L498.5,22.7 C498.5,20 499.4,17.8 501.1,16.1 C502.8,14.4 505,13.5 507.7,13.5 C510.4,13.5 512.6,14.4 514.3,16.1 C516,17.8 516.9,20 516.9,22.7 L516.9,49.2 L532.6,49.2 C535.2,49.2 537.3,49.9 538.9,51.4 C540.5,52.9 541.3,54.8 541.3,57.3 C541.3,59.5 540.5,61.4 538.9,62.8 C537.3,64.3 535.2,65 532.6,65 L516.9,65 L516.9,110.5 C516.9,115.4 518.3,119.5 521,122.8 C523.7,126.1 527,127.8 531,127.8 L537.1,127.9 L537.1,127.9 Z" id="path25"></path>
            <path d="M617.3,44.4 C623.8,44.4 628.9,45.4 632.6,47.3 C636.3,49.3 638.1,51.7 638.1,54.7 C638.1,55.6 638,56.2 637.9,56.5 C636.8,60.4 634.3,62.4 630.5,62.4 C629.9,62.4 629,62.3 627.7,62 C622.8,61.1 618.8,60.7 615.7,60.7 C606.9,60.7 599.7,62.7 594.3,66.8 C588.9,70.9 586.2,76.3 586.2,83.2 L586.2,137 C586.2,139.9 585.4,142.2 583.8,143.8 C582.3,145.4 580.1,146.2 577,146.2 C574.1,146.2 571.8,145.5 570.2,144 C568.6,142.4 567.8,140.1 567.8,137 L567.8,54.6 C567.8,51.7 568.6,49.4 570.2,47.8 C571.8,46.2 574.1,45.4 577,45.4 C583.1,45.4 586.2,48.5 586.2,54.6 L586.2,58.1 C589.9,53.8 594.4,50.4 599.8,48 C605.2,45.6 611.2,44.4 617.3,44.4 L617.3,44.4 Z" id="path27"></path>
            <path d="M740.9,94.3 C740.9,96.6 740.1,98.6 738.5,100.2 C736.9,101.7 734.9,102.4 732.4,102.4 L662.4,102.4 C663.8,111 667.6,117.9 674,123.2 C680.5,128.5 688.4,131.1 697.8,131.1 C701.5,131.1 705.3,130.4 709.2,129.1 C713.3,127.7 716.6,126.1 719.2,124.1 C720.9,122.7 722.9,122.1 725.3,122.1 C727.7,122.1 729.5,122.7 730.8,123.9 C733,125.7 734.1,127.8 734.1,130.2 C734.1,132.4 733.1,134.3 731.2,135.7 C727,139 721.8,141.7 715.5,143.8 C709.4,145.9 703.5,146.9 697.8,146.9 C687.7,146.9 678.7,144.7 670.7,140.4 C662.7,136 656.4,129.9 651.9,122.2 C647.5,114.5 645.3,105.7 645.3,95.8 C645.3,85.9 647.4,77.2 651.6,69.4 C655.9,61.5 661.8,55.5 669.3,51.2 C676.9,46.8 685.5,44.6 695.1,44.6 C704.6,44.6 712.7,46.7 719.6,50.9 C726.5,55.1 731.8,60.9 735.5,68.4 C739.2,75.9 740.9,84.6 740.9,94.3 L740.9,94.3 Z M695,60.6 C686,60.6 678.7,63.1 673.1,68 C667.6,72.9 664.1,79.5 662.6,87.7 L724,87.7 C722.9,79.5 719.8,72.9 714.8,68 C709.7,63.1 703.1,60.6 695,60.6 Z" id="path29"></path>
            <path d="M848.2,2.3 C851,2.3 853.3,3.2 855,4.9 C856.7,6.6 857.6,8.9 857.6,11.7 L857.6,95.7 C857.6,105.3 855.3,114 850.8,121.9 C846.4,129.6 840.3,135.8 832.6,140.3 C825,144.7 816.4,146.9 807,146.9 C797.6,146.9 788.9,144.7 781,140.3 C773.3,135.8 767.2,129.6 762.8,121.9 C758.4,114 756.2,105.3 756.2,95.7 C756.2,86.1 758.2,77.5 762.3,69.7 C766.5,61.8 772.1,55.7 779.3,51.3 C786.5,46.9 794.6,44.7 803.4,44.7 C810.5,44.7 817.2,46.2 823.3,49.1 C829.4,52 834.7,56.2 839,61.4 L839,11.6 C839,8.8 839.9,6.5 841.6,4.8 C843.3,3.2 845.5,2.3 848.2,2.3 L848.2,2.3 Z M807,130.5 C813.1,130.5 818.7,129 823.6,126.1 C828.6,123 832.6,118.9 835.4,113.6 C838.2,108.3 839.6,102.4 839.6,95.9 C839.6,89.4 838.2,83.6 835.4,78.4 C832.6,73.1 828.6,69 823.6,66.1 C818.7,63 813.2,61.5 807,61.5 C800.8,61.5 795.3,63 790.2,66.1 C785.3,69 781.4,73.2 778.4,78.4 C775.6,83.6 774.2,89.4 774.2,95.9 C774.2,102.4 775.6,108.3 778.4,113.6 C781.3,118.9 785.3,123.1 790.2,126.1 C795.2,129 800.8,130.5 807,130.5 Z" id="path31"></path>
        </g>
        <g id="scoutred-icon" transform="translate(32.000000, 25.000000)">
            <path d="M104.325233,0 C46.7136081,0 0,46.7136081 0,104.325233 C0,161.936857 46.7136081,208.650465 104.325233,208.650465 C161.936857,208.650465 208.650465,161.936857 208.650465,104.325233 C208.650465,46.7136081 161.936857,0 104.325233,0 Z M104.325233,198.245324 C52.4638178,198.245324 10.4051413,156.186647 10.4051413,104.325233 C10.4051413,52.4638178 52.4638178,10.4051413 104.325233,10.4051413 C156.186647,10.4051413 198.245324,52.4638178 198.245324,104.325233 C198.245324,156.186647 156.186647,198.245324 104.325233,198.245324 Z" id="world" fill="#CC1717" fill-rule="nonzero"></path>
            <path d="M67.1405434,102.846607 C62.6499035,102.846607 58.9807221,106.515789 58.9807221,111.006429 L67.1405434,123.602126 L75.3003648,111.006429 C75.3003648,106.515789 71.6311833,102.846607 67.1405434,102.846607 Z M67.1405434,114.127971 C65.0595151,114.127971 63.3618342,112.43029 63.3618342,110.349262 C63.3618342,108.268234 65.0595151,106.570553 67.1405434,106.570553 C69.2215717,106.570553 70.9192526,108.268234 70.9192526,110.349262 C70.9192526,112.43029 69.2215717,114.127971 67.1405434,114.127971 Z" id="location" fill="#CC1717" fill-rule="nonzero"></path>
            <path d="M102.485385,40.5209279 L185.485335,123.547362 C186.471085,119.385306 187.128252,115.113721 187.456835,110.787373 L181.813618,105.094463 L174.482548,97.7583222 L181.816153,105.091927 L187.621127,99.2869537 C187.347308,94.8510776 186.744905,90.5247294 185.813918,86.307909 L174.444432,97.6773948 L109.909371,33.1363499 L120.535348,22.4531997 C116.208999,21.6317411 111.827887,21.0841021 107.282483,20.9198104 L102.46326,25.7390338 L97.8630922,21.138866 C93.4819801,21.4674494 89.2103958,22.1246163 85.1031031,23.1103665 L95.1031356,33.1103989 L67.7885617,60.3954081 L49.1779837,41.730093 C46.5493164,44.0301769 44.0849408,46.4945525 41.784857,49.1232198 L60.4045835,67.7429463 L25.8980199,102.466741 L25.8997843,102.468508 C24.5346072,104.49425 24.7548432,107.229279 26.5604923,109.034928 C28.3641331,110.838569 31.0950877,111.060321 33.1201507,109.700185 L33.1222104,109.702248 L67.7703283,75.163455 L97.974994,105.36809 L42.7158433,160.622524 C45.070691,163.196427 47.5898305,165.606039 50.2184978,167.851359 L70.2012924,147.87312 L109.911151,187.621127 C114.292263,187.347308 118.618611,186.690141 122.780667,185.759154 L77.6004486,140.524172 L105.365747,112.758873 L159.472482,166.865608 C162.101149,164.565524 164.565524,162.101149 166.865608,159.472482 L147.210099,139.809689 L174.475337,112.552162 L167.080184,105.154917 L139.757477,132.36435 L75.1997197,67.8065929 L102.485385,40.5209279 L102.485385,40.5209279 Z" id="streets" fill="#444444" fill-rule="evenodd"></path>
        </g>
    </g>
</svg>